<svg xmlns="http://www.w3.org/2000/svg" viewBox="0 0 1100 540" width="1100" height="540" font-family="'PingFang SC', 'Microsoft YaHei', 'Segoe UI', Arial, sans-serif">
  <rect width="1100" height="540" fill="#F8FAFC" rx="12"/>

  <defs>
    <marker id="arrBlue" viewBox="0 0 10 10" refX="9" refY="5" markerWidth="6" markerHeight="6" orient="auto">
      <path d="M0 1 L10 5 L0 9 Z" fill="#2C3E50"/>
    </marker>
    <marker id="arrGray" viewBox="0 0 10 10" refX="9" refY="5" markerWidth="6" markerHeight="6" orient="auto">
      <path d="M0 1 L10 5 L0 9 Z" fill="#718096"/>
    </marker>
  </defs>

  <rect x="25" y="20" width="345" height="500" fill="#EDF2F7" rx="10" stroke="#E2E8F0" stroke-width="1.5"/>
  <rect x="380" y="20" width="345" height="500" fill="#EDF2F7" rx="10" stroke="#E2E8F0" stroke-width="1.5"/>
  <rect x="735" y="20" width="345" height="500" fill="#EDF2F7" rx="10" stroke="#E2E8F0" stroke-width="1.5"/>

  <text x="197" y="46" font-size="12" fill="#718096" font-weight="bold" text-anchor="middle" letter-spacing="2">ACQUISITION</text>
  <text x="552" y="46" font-size="12" fill="#718096" font-weight="bold" text-anchor="middle" letter-spacing="2">SERVER</text>
  <text x="907" y="46" font-size="12" fill="#718096" font-weight="bold" text-anchor="middle" letter-spacing="2">CLIENT</text>

  <rect x="57" y="68" width="280" height="56" rx="8" fill="#2C3E50" stroke="#1A252F" stroke-width="1"/>
  <text x="197" y="92" font-size="14" fill="#FFFFFF" font-weight="bold" text-anchor="middle">EEG Acquisition</text>
  <text x="197" y="111" font-size="11" fill="#CBD5E0" text-anchor="middle">Natus Amplifier / Simulator</text>

  <rect x="57" y="395" width="280" height="52" rx="8" fill="#FFFFFF" stroke="#CBD5E0" stroke-width="1"/>
  <text x="197" y="417" font-size="14" fill="#2C3E50" font-weight="bold" text-anchor="middle">YAML Task Definition</text>
  <text x="197" y="434" font-size="11" fill="#718096" text-anchor="middle">JSON Schema · task_schema_v2.1.json</text>


  <rect x="412" y="68" width="135" height="56" rx="8" fill="#FFFFFF" stroke="#CBD5E0" stroke-width="1"/>
  <text x="479" y="92" font-size="14" fill="#2C3E50" font-weight="bold" text-anchor="middle">Preprocessing</text>
  <text x="479" y="111" font-size="11" fill="#718096" text-anchor="middle">Filter · Notch · Epoch</text>

  <rect x="557" y="68" width="135" height="56" rx="8" fill="#FFFFFF" stroke="#CBD5E0" stroke-width="1"/>
  <text x="624" y="92" font-size="14" fill="#2C3E50" font-weight="bold" text-anchor="middle">Decoding Model</text>
  <text x="624" y="111" font-size="11" fill="#718096" text-anchor="middle">Feature Ext. · Inference</text>

  <rect x="412" y="142" width="280" height="82" rx="8" fill="#E67E22" stroke="#D35400" stroke-width="1"/>
  <text x="552" y="167" font-size="14" fill="#FFFFFF" font-weight="bold" text-anchor="middle">ZMQ Publisher</text>
  <text x="552" y="184" font-size="11" fill="#FED7AA" text-anchor="middle">NetworkHooksTopic — Topic-Based Routing</text>
  
  <rect x="422" y="194" width="82" height="20" rx="4" fill="rgba(255,255,255,0.18)"/>
  <text x="463" y="208" font-size="10" fill="#FFFFFF" font-weight="500" text-anchor="middle">word_decoding</text>
  
  <rect x="511" y="194" width="82" height="20" rx="4" fill="rgba(255,255,255,0.18)"/>
  <text x="552" y="208" font-size="10" fill="#FFFFFF" font-weight="500" text-anchor="middle">sentence_partial</text>
  
  <rect x="600" y="194" width="82" height="20" rx="4" fill="rgba(255,255,255,0.18)"/>
  <text x="641" y="208" font-size="10" fill="#FFFFFF" font-weight="500" text-anchor="middle">sentence_result</text>

  <rect x="412" y="395" width="280" height="52" rx="8" fill="#FFFFFF" stroke="#CBD5E0" stroke-width="1"/>
  <text x="552" y="417" font-size="14" fill="#2C3E50" font-weight="bold" text-anchor="middle">Data Recording &amp; Logging</text>
  <text x="552" y="434" font-size="11" fill="#718096" text-anchor="middle">EEG data · Marker logs · Session metadata</text>


  <rect x="765" y="142" width="280" height="62" rx="8" fill="#FFFFFF" stroke="#CBD5E0" stroke-width="1"/>
  <text x="905" y="164" font-size="14" fill="#2C3E50" font-weight="bold" text-anchor="middle">Electron Main Process</text>
  <text x="905" y="181" font-size="11" fill="#718096" text-anchor="middle">ZMQ Subscriber → IPC Bridge</text>

  <rect x="765" y="222" width="280" height="210" rx="8" fill="#FFFFFF" stroke="#4A607A" stroke-width="1.5"/>
  <text x="905" y="240" font-size="12" fill="#4A607A" font-weight="bold" text-anchor="middle">Vue 3 Renderer Container</text>

  <rect x="777" y="249" width="256" height="28" rx="4" fill="#4A607A"/>
  <text x="905" y="267" font-size="12" fill="#FFFFFF" font-weight="bold" text-anchor="middle">Central EventBus (Reactive)</text>

  <rect x="777" y="285" width="256" height="50" rx="4" fill="#F8FAFC" stroke="#E2E8F0" stroke-width="1"/>
  <text x="905" y="301" font-size="12" fill="#2C3E50" font-weight="bold" text-anchor="middle">DecodingDisplay</text>
  
  <rect x="785" y="307" width="116" height="22" rx="3" fill="#EDF2F7"/>
  <text x="843" y="321" font-size="10" fill="#2C3E50" font-weight="500" text-anchor="middle">Decoded Hist (max 20)</text>
  
  <rect x="909" y="307" width="116" height="22" rx="3" fill="#FEEBC8"/>
  <text x="967" y="321" font-size="10" fill="#C05621" font-weight="500" text-anchor="middle">Real-time Words</text>

  <rect x="777" y="343" width="256" height="36" rx="4" fill="#F8FAFC" stroke="#E2E8F0" stroke-width="1"/>
  <text x="905" y="359" font-size="12" fill="#2C3E50" font-weight="bold" text-anchor="middle">SentencePreview</text>
  <text x="905" y="372" font-size="10" fill="#718096" text-anchor="middle">Countdown overlay · preview configurations</text>

  <rect x="777" y="387" width="256" height="36" rx="4" fill="#F8FAFC" stroke="#E2E8F0" stroke-width="1"/>
  <text x="905" y="403" font-size="12" fill="#2C3E50" font-weight="bold" text-anchor="middle">ExperimentCore</text>
  <text x="905" y="416" font-size="10" fill="#718096" text-anchor="middle">Keyboard control · Session Management</text>

  <rect x="765" y="450" width="280" height="52" rx="8" fill="#FFFFFF" stroke="#CBD5E0" stroke-width="1"/>
  <text x="905" y="472" font-size="14" fill="#2C3E50" font-weight="bold" text-anchor="middle">Marker Queue Buffer</text>
  <text x="905" y="489" font-size="11" fill="#718096" text-anchor="middle">pendingMarkers[] — Flushed in-order</text>


  <line x1="337" y1="96" x2="404" y2="96" stroke="#2C3E50" stroke-width="2" marker-end="url(#arrBlue)"/>
  <text x="371" y="89" font-size="11" fill="#718096" font-weight="500" text-anchor="middle">Raw EEG</text>

  <line x1="552" y1="124" x2="552" y2="134" stroke="#2C3E50" stroke-width="2"/>
  <line x1="552" y1="134" x2="552" y2="136" stroke="#2C3E50" stroke-width="2" marker-end="url(#arrBlue)"/>

  <line x1="692" y1="173" x2="757" y2="173" stroke="#2C3E50" stroke-width="2.5" marker-end="url(#arrBlue)"/>
  <text x="725" y="165" font-size="11" fill="#2C3E50" font-weight="bold" text-anchor="middle">ZMQ Topics</text>

  <line x1="905" y1="204" x2="905" y2="216" stroke="#2C3E50" stroke-width="2" marker-end="url(#arrBlue)"/>

  <line x1="552" y1="224" x2="552" y2="387" stroke="#2C3E50" stroke-width="2" marker-end="url(#arrBlue)"/>

  <line x1="765" y1="421" x2="700" y2="421" stroke="#718096" stroke-width="1.5" stroke-dasharray="5,4" marker-end="url(#arrGray)"/>
  <text x="733" y="413" font-size="10" fill="#718096" font-weight="bold" text-anchor="middle">Markers</text>

  <line x1="337" y1="421" x2="404" y2="421" stroke="#718096" stroke-width="1.5" stroke-dasharray="5,4" marker-end="url(#arrGray)"/>
</svg>
